<?xml version="1.0" encoding="iso-8859-1"?>
<!-- Generator: Adobe Illustrator 25.2.1, SVG Export Plug-In . SVG Version: 6.00 Build 0)  -->
<svg version="1.1" id="Layer_1" xmlns="http://www.w3.org/2000/svg" xmlns:xlink="http://www.w3.org/1999/xlink" x="0px" y="0px"
	 viewBox="0 0 50 50" style="enable-background:new 0 0 50 50;" xml:space="preserve">
<path fill="#FAF9F6" d="M12,23.403V23.39V10.389L11.88,10.3h-0.01L9.14,8.28C7.47,7.04,5.09,7.1,3.61,8.56C2.62,9.54,2,10.9,2,12.41v3.602
	L12,23.403z"/>
<path fill="#FAF9F6" d="M38,23.39v0.013l10-7.391V12.41c0-1.49-0.6-2.85-1.58-3.83c-1.46-1.457-3.765-1.628-5.424-0.403L38.12,10.3L38,10.389V23.39
	z"/>
<path fill="#FAF9F6" d="M14,24.868l10.406,7.692c0.353,0.261,0.836,0.261,1.189,0L36,24.868V11.867L25,20l-11-8.133V24.868z"/>
<path fill="#FAF9F6" d="M38,25.889V41c0,0.552,0.448,1,1,1h6.5c1.381,0,2.5-1.119,2.5-2.5V18.497L38,25.889z"/>
<path fill="#FAF9F6" d="M12,25.889L2,18.497V39.5C2,40.881,3.119,42,4.5,42H11c0.552,0,1-0.448,1-1V25.889z"/>
</svg>